<svg xmlns="http://www.w3.org/2000/svg" xmlns:xlink="http://www.w3.org/1999/xlink" viewBox="0 0 700 346.4" width="700" height="346.4"><path d="M 177.600,222.600 C 179.935,217.766 180.000,217.800 182.400,213.000" stroke-width="5.353" stroke="black" fill="none" stroke-linecap="round"></path><path d="M 182.400,213.000 C 186.599,206.461 185.935,206.166 189.600,199.400" stroke-width="3.411" stroke="black" fill="none" stroke-linecap="round"></path><path d="M 189.600,199.400 C 192.865,190.222 193.399,190.461 196.000,181.000" stroke-width="2.817" stroke="black" fill="none" stroke-linecap="round"></path><path d="M 196.000,181.000 C 199.931,170.298 199.665,170.222 203.200,159.400" stroke-width="2.515" stroke="black" fill="none" stroke-linecap="round"></path><path d="M 203.200,159.400 C 206.101,150.304 205.931,150.298 208.000,141.000" stroke-width="2.553" stroke="black" fill="none" stroke-linecap="round"></path><path d="M 208.000,141.000 C 209.516,130.586 210.101,130.704 211.200,120.200" stroke-width="2.525" stroke="black" fill="none" stroke-linecap="round"></path><path d="M 211.200,120.200 C 212.357,115.832 211.916,115.786 212.800,111.400" stroke-width="3.239" stroke="black" fill="none" stroke-linecap="round"></path><path d="M 212.800,111.400 C 212.800,107.800 213.157,107.832 212.800,104.200" stroke-width="3.707" stroke="black" fill="none" stroke-linecap="round"></path><path d="M 212.800,104.200 C 213.256,101.339 212.800,101.400 212.800,98.600" stroke-width="4.059" stroke="black" fill="none" stroke-linecap="round"></path><path d="M 212.800,98.600 C 212.744,93.423 212.056,94.139 210.400,89.800" stroke-width="4.296" stroke="black" fill="none" stroke-linecap="round"></path><path d="M 210.400,89.800 C 207.144,85.225 208.344,86.623 204.000,85.000" stroke-width="4.437" stroke="black" fill="none" stroke-linecap="round"></path><path d="M 204.000,85.000 C 200.059,86.278 201.544,84.825 199.200,89.000" stroke-width="5.012" stroke="black" fill="none" stroke-linecap="round"></path><path d="M 199.200,89.000 C 199.200,94.600 197.659,93.878 199.200,100.200" stroke-width="3.821" stroke="black" fill="none" stroke-linecap="round"></path><path d="M 199.200,100.200 C 199.200,105.800 199.200,105.800 199.200,111.400" stroke-width="3.509" stroke="black" fill="none" stroke-linecap="round"></path><path d="M 199.200,111.400 C 198.382,115.164 199.200,115.000 199.200,118.600" stroke-width="3.808" stroke="black" fill="none" stroke-linecap="round"></path><path d="M 199.200,118.600 C 201.089,123.451 200.382,123.564 203.200,128.200" stroke-width="3.580" stroke="black" fill="none" stroke-linecap="round"></path><path d="M 203.200,128.200 C 204.084,130.810 204.289,130.651 205.600,133.000" stroke-width="4.040" stroke="black" fill="none" stroke-linecap="round"></path><path d="M 205.600,133.000 C 207.446,136.490 207.684,136.010 210.400,138.600" stroke-width="4.005" stroke="black" fill="none" stroke-linecap="round"></path><path d="M 210.400,138.600 C 216.086,142.745 215.846,142.490 222.400,145.000" stroke-width="3.277" stroke="black" fill="none" stroke-linecap="round"></path><path d="M 222.400,145.000 C 227.637,145.607 227.286,146.745 232.800,146.600" stroke-width="3.463" stroke="black" fill="none" stroke-linecap="round"></path><path d="M 232.800,146.600 C 237.935,148.368 238.037,147.607 243.200,149.000" stroke-width="3.458" stroke="black" fill="none" stroke-linecap="round"></path><path d="M 243.200,149.000 C 248.000,149.000 247.935,149.568 252.800,149.000" stroke-width="3.553" stroke="black" fill="none" stroke-linecap="round"></path><path d="M 252.800,149.000 C 257.613,148.772 257.600,149.000 262.400,149.000" stroke-width="3.633" stroke="black" fill="none" stroke-linecap="round"></path><path d="M 262.400,149.000 C 266.041,149.172 266.013,149.172 269.600,149.800" stroke-width="3.797" stroke="black" fill="none" stroke-linecap="round"></path><path d="M 269.600,149.800 C 272.878,150.359 272.841,150.372 276.000,151.400" stroke-width="3.925" stroke="black" fill="none" stroke-linecap="round"></path><path d="M 276.000,151.400 C 280.336,152.445 280.078,152.759 284.000,154.600" stroke-width="3.789" stroke="black" fill="none" stroke-linecap="round"></path><path d="M 284.000,154.600 C 287.003,156.803 287.136,156.445 289.600,159.400" stroke-width="4.336" stroke="black" fill="none" stroke-linecap="round"></path><path d="M 289.600,159.400 C 291.816,161.105 291.403,161.203 292.800,163.400" stroke-width="4.283" stroke="black" fill="none" stroke-linecap="round"></path><path d="M 292.800,163.400 C 293.995,166.957 294.216,166.705 294.400,170.600" stroke-width="4.074" stroke="black" fill="none" stroke-linecap="round"></path><path d="M 294.400,170.600 C 294.400,174.200 294.795,174.157 294.400,177.800" stroke-width="4.034" stroke="black" fill="none" stroke-linecap="round"></path><path d="M 294.400,177.800 C 294.837,182.234 294.400,182.200 294.400,186.600" stroke-width="3.742" stroke="black" fill="none" stroke-linecap="round"></path><path d="M 294.400,186.600 C 293.607,194.299 293.637,194.234 292.000,201.800" stroke-width="3.152" stroke="black" fill="none" stroke-linecap="round"></path><path d="M 292.000,201.800 C 291.278,205.644 291.207,205.499 289.600,209.000" stroke-width="3.634" stroke="black" fill="none" stroke-linecap="round"></path><path d="M 289.600,209.000 C 287.558,211.771 288.078,212.044 285.600,214.600" stroke-width="3.885" stroke="black" fill="none" stroke-linecap="round"></path><path d="M 285.600,214.600 C 284.406,217.394 283.958,216.971 282.400,219.400" stroke-width="4.140" stroke="black" fill="none" stroke-linecap="round"></path><path d="M 282.400,219.400 C 279.757,221.661 280.006,221.794 276.800,223.400" stroke-width="4.044" stroke="black" fill="none" stroke-linecap="round"></path><path d="M 276.800,223.400 C 272.970,225.836 272.957,225.661 268.800,227.400" stroke-width="3.729" stroke="black" fill="none" stroke-linecap="round"></path><path d="M 268.800,227.400 C 263.218,229.068 263.370,229.436 257.600,230.600" stroke-width="3.503" stroke="black" fill="none" stroke-linecap="round"></path><path d="M 257.600,230.600 C 254.436,231.593 254.418,231.468 251.200,232.200" stroke-width="3.870" stroke="black" fill="none" stroke-linecap="round"></path><path d="M 251.200,232.200 C 248.012,232.732 248.036,232.793 244.800,233.000" stroke-width="4.013" stroke="black" fill="none" stroke-linecap="round"></path><path d="M 244.800,233.000 C 238.339,234.064 238.412,233.532 232.000,233.800" stroke-width="4.085" stroke="black" fill="none" stroke-linecap="round"></path><path d="M 232.000,233.800 C 228.027,234.020 228.739,233.664 225.600,232.200" stroke-width="4.489" stroke="black" fill="none" stroke-linecap="round"></path><path d="M 225.600,232.200 C 223.465,229.583 223.227,230.420 222.400,226.600" stroke-width="4.916" stroke="black" fill="none" stroke-linecap="round"></path><path d="M 222.400,226.600 C 221.600,223.800 221.465,223.983 221.600,221.000" stroke-width="4.850" stroke="black" fill="none" stroke-linecap="round"></path><path d="M 221.600,221.000 C 221.579,218.069 221.600,218.200 222.400,215.400" stroke-width="4.816" stroke="black" fill="none" stroke-linecap="round"></path><path d="M 222.400,215.400 C 223.163,212.647 223.179,212.869 224.800,210.600" stroke-width="4.846" stroke="black" fill="none" stroke-linecap="round"></path><path d="M 224.800,210.600 C 226.899,209.111 226.363,208.647 228.800,207.400" stroke-width="4.421" stroke="black" fill="none" stroke-linecap="round"></path><path d="M 228.800,207.400 C 230.520,205.029 230.899,205.511 232.800,203.400" stroke-width="4.279" stroke="black" fill="none" stroke-linecap="round"></path><path d="M 232.800,203.400 C 236.251,201.040 236.120,201.029 240.000,199.400" stroke-width="3.867" stroke="black" fill="none" stroke-linecap="round"></path><path d="M 240.000,199.400 C 243.091,197.221 242.651,198.240 245.600,197.800" stroke-width="4.618" stroke="black" fill="none" stroke-linecap="round"></path><path d="M 245.600,197.800 C 248.632,199.369 248.291,198.421 250.400,201.800" stroke-width="4.975" stroke="black" fill="none" stroke-linecap="round"></path><path d="M 250.400,201.800 C 251.433,204.145 251.832,203.769 252.000,206.600" stroke-width="4.906" stroke="black" fill="none" stroke-linecap="round"></path><path d="M 252.000,206.600 C 253.430,209.681 252.633,209.345 252.800,212.200" stroke-width="5.015" stroke="black" fill="none" stroke-linecap="round"></path><path d="M 252.800,212.200 C 251.105,216.388 252.230,214.481 249.600,216.200" stroke-width="5.334" stroke="black" fill="none" stroke-linecap="round"></path><path d="M 249.600,216.200 C 247.212,214.039 247.905,215.988 246.400,211.400" stroke-width="5.237" stroke="black" fill="none" stroke-linecap="round"></path><path d="M 246.400,211.400 C 246.400,208.600 245.612,208.839 246.400,205.800" stroke-width="5.118" stroke="black" fill="none" stroke-linecap="round"></path><path d="M 246.400,205.800 C 245.355,202.498 246.400,203.000 246.400,200.200" stroke-width="5.169" stroke="black" fill="none" stroke-linecap="round"></path><path d="M 246.400,200.200 C 248.107,197.764 247.355,198.098 250.400,197.000" stroke-width="5.261" stroke="black" fill="none" stroke-linecap="round"></path><path d="M 250.400,197.000 C 253.702,195.955 252.907,196.164 256.000,197.000" stroke-width="5.272" stroke="black" fill="none" stroke-linecap="round"></path><path d="M 256.000,197.000 C 257.600,199.000 258.102,197.955 259.200,201.000" stroke-width="5.152" stroke="black" fill="none" stroke-linecap="round"></path><path d="M 259.200,201.000 C 261.193,202.786 260.800,203.000 262.400,205.000" stroke-width="5.130" stroke="black" fill="none" stroke-linecap="round"></path><path d="M 262.400,205.000 C 264.182,209.981 263.593,207.186 264.000,209.800" stroke-width="5.207" stroke="black" fill="none" stroke-linecap="round"></path><path d="M 264.000,209.800 C 262.377,207.115 263.782,209.581 261.600,204.200" stroke-width="5.400" stroke="black" fill="none" stroke-linecap="round"></path><path d="M 261.600,204.200 C 261.014,201.012 260.777,201.115 260.800,197.800" stroke-width="5.124" stroke="black" fill="none" stroke-linecap="round"></path><path d="M 260.800,197.800 C 260.380,194.932 260.614,195.012 260.800,192.200" stroke-width="5.098" stroke="black" fill="none" stroke-linecap="round"></path><path d="M 260.800,192.200 C 260.642,188.631 261.180,189.732 262.400,187.400" stroke-width="5.310" stroke="black" fill="none" stroke-linecap="round"></path><path d="M 262.400,187.400 C 266.159,185.584 264.642,185.831 268.800,186.600" stroke-width="5.179" stroke="black" fill="none" stroke-linecap="round"></path><path d="M 268.800,186.600 C 271.540,188.671 271.359,187.584 272.800,191.400" stroke-width="5.269" stroke="black" fill="none" stroke-linecap="round"></path><path d="M 272.800,191.400 C 273.399,194.186 273.940,193.871 273.600,197.000" stroke-width="4.963" stroke="black" fill="none" stroke-linecap="round"></path><path d="M 273.600,197.000 C 272.418,200.433 273.799,199.786 273.600,202.600" stroke-width="5.036" stroke="black" fill="none" stroke-linecap="round"></path><path d="M 273.600,202.600 C 276.394,206.347 274.818,204.833 278.400,205.800" stroke-width="5.326" stroke="black" fill="none" stroke-linecap="round"></path><path d="M 278.400,205.800 C 280.954,203.272 280.794,205.147 282.400,200.200" stroke-width="5.167" stroke="black" fill="none" stroke-linecap="round"></path><path d="M 282.400,200.200 C 283.683,196.223 284.154,196.472 284.800,192.200" stroke-width="4.919" stroke="black" fill="none" stroke-linecap="round"></path><path d="M 284.800,192.200 C 285.793,189.036 285.683,189.023 286.400,185.800" stroke-width="4.755" stroke="black" fill="none" stroke-linecap="round"></path><path d="M 286.400,185.800 C 286.986,182.612 286.993,182.636 287.200,179.400" stroke-width="4.912" stroke="black" fill="none" stroke-linecap="round"></path><path d="M 287.200,179.400 C 287.200,176.600 287.386,176.612 287.200,173.800" stroke-width="5.014" stroke="black" fill="none" stroke-linecap="round"></path><path d="M 287.200,173.800 C 288.195,168.598 287.200,171.000 287.200,168.200" stroke-width="5.137" stroke="black" fill="none" stroke-linecap="round"></path><path d="M 287.200,168.200 C 284.205,169.788 286.195,167.798 283.200,172.200" stroke-width="5.346" stroke="black" fill="none" stroke-linecap="round"></path><path d="M 283.200,172.200 C 283.001,175.014 282.205,174.588 283.200,177.800" stroke-width="5.156" stroke="black" fill="none" stroke-linecap="round"></path><path d="M 283.200,177.800 C 282.505,181.344 283.401,180.614 284.000,183.400" stroke-width="5.194" stroke="black" fill="none" stroke-linecap="round"></path><path d="M 284.000,183.400 C 286.617,185.535 285.705,185.744 289.600,186.600" stroke-width="5.212" stroke="black" fill="none" stroke-linecap="round"></path><path d="M 289.600,186.600 C 292.532,187.811 292.217,187.535 295.200,187.400" stroke-width="5.258" stroke="black" fill="none" stroke-linecap="round"></path><path d="M 295.200,187.400 C 298.826,186.957 297.732,187.011 300.000,185.000" stroke-width="5.314" stroke="black" fill="none" stroke-linecap="round"></path><path d="M 300.000,185.000 C 300.613,182.055 301.226,182.957 300.000,179.400" stroke-width="5.240" stroke="black" fill="none" stroke-linecap="round"></path><path d="M 300.000,179.400 C 298.978,176.897 299.413,176.855 297.600,174.600" stroke-width="5.140" stroke="black" fill="none" stroke-linecap="round"></path><path d="M 297.600,174.600 C 292.571,168.546 295.378,170.897 292.800,167.400" stroke-width="4.872" stroke="black" fill="none" stroke-linecap="round"></path><path d="M 292.800,167.400 C 295.655,168.911 292.971,166.546 298.400,170.600" stroke-width="5.296" stroke="black" fill="none" stroke-linecap="round"></path><path d="M 298.400,170.600 C 300.561,172.988 300.855,172.111 303.200,173.800" stroke-width="5.270" stroke="black" fill="none" stroke-linecap="round"></path><path d="M 303.200,173.800 C 307.575,175.375 305.761,174.588 308.800,173.800" stroke-width="5.384" stroke="black" fill="none" stroke-linecap="round"></path><path d="M 308.800,173.800 C 309.195,170.157 310.375,171.775 308.800,166.600" stroke-width="5.237" stroke="black" fill="none" stroke-linecap="round"></path><path d="M 308.800,166.600 C 308.238,162.929 308.395,162.957 307.200,159.400" stroke-width="5.007" stroke="black" fill="none" stroke-linecap="round"></path><path d="M 307.200,159.400 C 305.818,156.257 306.238,156.129 304.800,153.000" stroke-width="4.957" stroke="black" fill="none" stroke-linecap="round"></path><path d="M 304.800,153.000 C 301.986,148.016 303.818,149.857 303.200,146.600" stroke-width="4.981" stroke="black" fill="none" stroke-linecap="round"></path><path d="M 303.200,146.600 C 306.959,145.978 304.386,145.216 309.600,147.400" stroke-width="5.303" stroke="black" fill="none" stroke-linecap="round"></path><path d="M 309.600,147.400 C 311.728,149.704 312.159,148.778 313.600,152.200" stroke-width="5.087" stroke="black" fill="none" stroke-linecap="round"></path><path d="M 313.600,152.200 C 315.349,157.000 315.328,154.504 316.800,157.000" stroke-width="5.056" stroke="black" fill="none" stroke-linecap="round"></path><path d="M 316.800,157.000 C 318.837,154.743 318.149,157.000 319.200,152.200" stroke-width="5.370" stroke="black" fill="none" stroke-linecap="round"></path><path d="M 319.200,152.200 C 318.614,149.012 319.637,149.143 318.400,145.800" stroke-width="5.276" stroke="black" fill="none" stroke-linecap="round"></path><path d="M 318.400,145.800 C 317.174,142.243 318.214,143.012 318.400,140.200" stroke-width="5.313" stroke="black" fill="none" stroke-linecap="round"></path><path d="M 318.400,140.200 C 320.800,137.800 319.574,138.243 323.200,137.800" stroke-width="5.430" stroke="black" fill="none" stroke-linecap="round"></path><path d="M 323.200,137.800 C 326.183,138.383 325.600,137.800 328.000,140.200" stroke-width="5.344" stroke="black" fill="none" stroke-linecap="round"></path><path d="M 328.000,140.200 C 329.282,145.374 330.183,142.383 331.200,145.800" stroke-width="5.193" stroke="black" fill="none" stroke-linecap="round"></path><path d="M 331.200,145.800 C 334.262,144.240 332.882,146.174 335.200,141.800" stroke-width="5.415" stroke="black" fill="none" stroke-linecap="round"></path><path d="M 335.200,141.800 C 335.200,138.600 336.262,139.040 335.200,135.400" stroke-width="5.124" stroke="black" fill="none" stroke-linecap="round"></path><path d="M 335.200,135.400 C 335.853,132.046 335.200,132.200 335.200,129.000" stroke-width="5.140" stroke="black" fill="none" stroke-linecap="round"></path><path d="M 335.200,129.000 C 332.033,124.967 334.653,126.446 332.800,124.200" stroke-width="5.183" stroke="black" fill="none" stroke-linecap="round"></path><path d="M 332.800,124.200 C 335.545,125.392 333.633,123.367 338.400,125.800" stroke-width="5.432" stroke="black" fill="none" stroke-linecap="round"></path><path d="M 338.400,125.800 C 341.200,125.800 341.145,126.192 344.000,125.800" stroke-width="5.401" stroke="black" fill="none" stroke-linecap="round"></path><path d="M 320.800,116.200 C 324.800,119.400 322.800,117.800 324.800,119.400" stroke-width="5.529" stroke="black" fill="none" stroke-linecap="round"></path><path d="M 324.800,119.400 C 320.605,116.395 324.800,119.400 320.800,116.200" stroke-width="5.559" stroke="black" fill="none" stroke-linecap="round"></path></svg>